<svg width="64" height="56" viewBox="0 0 64 56" fill="none" xmlns="http://www.w3.org/2000/svg">
<path d="M40.2879 2.39357C54.7817 8.63995 61.3416 25.168 54.9398 39.3101C48.5381 53.4521 31.5989 59.8528 17.1051 53.6064C2.61127 47.36 -3.94864 30.832 2.45311 16.6899C8.85486 2.54789 25.7941 -3.85281 40.2879 2.39357Z" fill="#FFDD55"/>
<path d="M44.7365 12.9871L64 15.3387L52.5708 29.6809L44.7365 12.9871Z" fill="#FFDD55"/>
<path d="M18.8205 35.5573L13.5076 28.6356H11.6059V35.5573H9.73431V20.4769H11.6059V27.0157H12.4209L18.6091 20.4769H20.843L14.5943 27.104L21.0543 35.5573H18.8205Z" fill="white"/>
<path d="M23.473 35.5573V20.4769H28.6952C29.9077 20.4769 30.8988 20.6905 31.6686 21.1175C32.4434 21.5397 33.0169 22.1116 33.3892 22.8332C33.7615 23.5548 33.9477 24.3599 33.9477 25.2484C33.9477 26.137 33.7615 26.9445 33.3892 27.671C33.022 28.3976 32.4534 28.9768 31.6837 29.4088C30.9139 29.8359 29.9278 30.0494 28.7254 30.0494H24.9823V28.4295H28.665C29.4952 28.4295 30.1618 28.2896 30.6649 28.0098C31.168 27.7299 31.5328 27.3519 31.7592 26.8758C31.9906 26.3947 32.1063 25.8523 32.1063 25.2484C32.1063 24.6446 31.9906 24.1047 31.7592 23.6285C31.5328 23.1523 31.1655 22.7792 30.6574 22.5092C30.1492 22.2343 29.475 22.0969 28.6349 22.0969H25.3445V35.5573H23.473Z" fill="white"/>
<path d="M47.4675 35.5573H45.5959V22.0969H42.3056C41.4704 22.0969 40.7988 22.2221 40.2906 22.4724C39.7825 22.7179 39.4127 23.0664 39.1813 23.518C38.9498 23.9697 38.8341 24.4974 38.8341 25.1012C38.8341 25.705 38.9473 26.2253 39.1737 26.6622C39.4052 27.0942 39.7724 27.428 40.2755 27.6637C40.7837 27.8993 41.4503 28.0171 42.2754 28.0171H46.4411V29.6665H42.215C41.0176 29.6665 40.034 29.4726 39.2643 29.0848C38.4945 28.6921 37.9235 28.1521 37.5512 27.4649C37.1789 26.7776 36.9927 25.9897 36.9927 25.1012C36.9927 24.2127 37.1789 23.4199 37.5512 22.7228C37.9235 22.0257 38.497 21.4783 39.2718 21.0807C40.0466 20.6782 41.0377 20.4769 42.2452 20.4769H47.4675V35.5573ZM40.1925 28.7829H42.3056L38.5624 35.5573H36.389L40.1925 28.7829Z" fill="white"/>
</svg>
